<svg width="20" height="19" viewBox="0 0 20 19" fill="none" xmlns="http://www.w3.org/2000/svg">
<path d="M14.0256 14.0125C13.817 13.7838 13.7127 13.5241 13.7127 13.2335C13.7127 12.9436 13.817 12.7019 14.0256 12.5083L16.1309 10.5556H7.96586C7.64343 10.5556 7.37335 10.4542 7.15562 10.2516C6.93713 10.0496 6.82788 9.79907 6.82788 9.5C6.82788 9.20093 6.93713 8.95006 7.15562 8.74739C7.37335 8.54543 7.64343 8.44444 7.96586 8.44444H16.1309L14.0256 6.49167C13.798 6.28056 13.6842 6.03004 13.6842 5.74011C13.6842 5.44948 13.798 5.19861 14.0256 4.9875C14.2342 4.77639 14.4952 4.67083 14.8085 4.67083C15.1211 4.67083 15.3817 4.76759 15.5903 4.96111L19.6871 8.76111C19.8008 8.86667 19.8816 8.98102 19.9294 9.10417C19.9765 9.22732 20 9.35926 20 9.5C20 9.64074 19.9765 9.77269 19.9294 9.89583C19.8816 10.019 19.8008 10.1333 19.6871 10.2389L15.5903 14.0389C15.3438 14.2676 15.0737 14.3686 14.7801 14.3418C14.4857 14.3158 14.2342 14.206 14.0256 14.0125ZM2.27596 19C1.65007 19 1.11408 18.7935 0.667994 18.3804C0.222665 17.9666 0 17.4694 0 16.8889V2.11111C0 1.53056 0.222665 1.03339 0.667994 0.619611C1.11408 0.206537 1.65007 0 2.27596 0H9.10384C9.42627 0 9.69673 0.100981 9.91522 0.302944C10.133 0.505611 10.2418 0.756482 10.2418 1.05556C10.2418 1.35463 10.133 1.60515 9.91522 1.80711C9.69673 2.00978 9.42627 2.11111 9.10384 2.11111H2.27596V16.8889H9.10384C9.42627 16.8889 9.69673 16.9902 9.91522 17.1929C10.133 17.3949 10.2418 17.6454 10.2418 17.9444C10.2418 18.2435 10.133 18.494 9.91522 18.696C9.69673 18.8987 9.42627 19 9.10384 19H2.27596Z" fill="black" fill-opacity="0.93"/>
</svg>
