<svg width="48" height="48" viewBox="0 0 48 48" fill="none" xmlns="http://www.w3.org/2000/svg">
<g clip-path="url(#clip0_133_496)">
<path d="M38.8597 25.96C38.9397 25.32 38.9997 24.68 38.9997 24C38.9997 23.32 38.9397 22.68 38.8597 22.04L43.0797 18.74C43.4597 18.44 43.5597 17.9 43.3197 17.46L39.3197 10.54C39.1397 10.22 38.7997 10.04 38.4397 10.04C38.3197 10.04 38.1997 10.06 38.0997 10.1L33.1197 12.1C32.0797 11.3 30.9597 10.64 29.7397 10.14L28.9797 4.84C28.9197 4.36 28.4997 4 27.9997 4H19.9997C19.4997 4 19.0797 4.36 19.0197 4.84L18.2597 10.14C17.0397 10.64 15.9197 11.32 14.8797 12.1L9.89968 10.1C9.77968 10.06 9.65968 10.04 9.53968 10.04C9.19968 10.04 8.85968 10.22 8.67968 10.54L4.67968 17.46C4.41968 17.9 4.53968 18.44 4.91968 18.74L9.13968 22.04C9.05968 22.68 8.99968 23.34 8.99968 24C8.99968 24.66 9.05968 25.32 9.13968 25.96L4.91968 29.26C4.53968 29.56 4.43968 30.1 4.67968 30.54L8.67968 37.46C8.85968 37.78 9.19968 37.96 9.55968 37.96C9.67968 37.96 9.79968 37.94 9.89968 37.9L14.8797 35.9C15.9197 36.7 17.0397 37.36 18.2597 37.86L19.0197 43.16C19.0797 43.64 19.4997 44 19.9997 44H27.9997C28.4997 44 28.9197 43.64 28.9797 43.16L29.7397 37.86C30.9597 37.36 32.0797 36.68 33.1197 35.9L38.0997 37.9C38.2197 37.94 38.3397 37.96 38.4597 37.96C38.7997 37.96 39.1397 37.78 39.3197 37.46L43.3197 30.54C43.5597 30.1 43.4597 29.56 43.0797 29.26L38.8597 25.96ZM34.8997 22.54C34.9797 23.16 34.9997 23.58 34.9997 24C34.9997 24.42 34.9597 24.86 34.8997 25.46L34.6197 27.72L36.3997 29.12L38.5597 30.8L37.1597 33.22L34.6197 32.2L32.5397 31.36L30.7397 32.72C29.8797 33.36 29.0597 33.84 28.2397 34.18L26.1197 35.04L25.7997 37.3L25.3997 40H22.5997L22.2197 37.3L21.8997 35.04L19.7797 34.18C18.9197 33.82 18.1197 33.36 17.3197 32.76L15.4997 31.36L13.3797 32.22L10.8397 33.24L9.43968 30.82L11.5997 29.14L13.3797 27.74L13.0997 25.48C13.0397 24.86 12.9997 24.4 12.9997 24C12.9997 23.6 13.0397 23.14 13.0997 22.54L13.3797 20.28L11.5997 18.88L9.43968 17.2L10.8397 14.78L13.3797 15.8L15.4597 16.64L17.2597 15.28C18.1197 14.64 18.9397 14.16 19.7597 13.82L21.8797 12.96L22.1997 10.7L22.5997 8H25.3797L25.7597 10.7L26.0797 12.96L28.1997 13.82C29.0597 14.18 29.8597 14.64 30.6597 15.24L32.4797 16.64L34.5997 15.78L37.1397 14.76L38.5397 17.18L36.3997 18.88L34.6197 20.28L34.8997 22.54ZM23.9997 16C19.5797 16 15.9997 19.58 15.9997 24C15.9997 28.42 19.5797 32 23.9997 32C28.4197 32 31.9997 28.42 31.9997 24C31.9997 19.58 28.4197 16 23.9997 16ZM23.9997 28C21.7997 28 19.9997 26.2 19.9997 24C19.9997 21.8 21.7997 20 23.9997 20C26.1997 20 27.9997 21.8 27.9997 24C27.9997 26.2 26.1997 28 23.9997 28Z" fill="#282A3A"/>
</g>
<defs>
<clipPath id="clip0_133_496">
<rect width="48" height="48" fill="white"/>
</clipPath>
</defs>
</svg>
